<svg width="16px" height="16px" viewBox="0 0 16 16" xmlns="http://www.w3.org/2000/svg">
    <g stroke="none" stroke-width="1" fill="none" fill-rule="evenodd">
        <g transform="translate(1, 1)">
            <rect fill="#63BA3C" x="0" y="0" width="14" height="14" rx="2" />
            <path fill="#FFFFFF"
                d="M9,3 L5,3 C4.448,3 4,3.448 4,4 L4,10.5 C4,10.776 4.224,11 4.5,11 C4.675,11 4.821,10.905 4.91,10.769 L4.914,10.77 L6.84,8.54 C6.92,8.434 7.08,8.434 7.16,8.54 L9.086,10.77 L9.09,10.769 C9.179,10.905 9.325,11 9.5,11 C9.776,11 10,10.776 10,10.5 L10,4 C10,3.448 9.552,3 9,3" />
        </g>
    </g>
</svg>