<?xml version="1.0" encoding="utf-8"?>
<!-- Generator: Adobe Illustrator 23.0.3, SVG Export Plug-In . SVG Version: 6.00 Build 0)  -->
<svg version="1.1" id="Layer_1" xmlns="http://www.w3.org/2000/svg" xmlns:xlink="http://www.w3.org/1999/xlink" x="0px"
	y="0px" viewBox="0 0 237.5 40" style="enable-background:new 0 0 237.5 40;" xml:space="preserve">
	<style type="text/css">
		.st0 {
			fill: #013454;
		}

		.st1 {
			fill: #2684FF;
		}

		.st2 {
			fill: #0064AD;
		}
	</style>
	<g>
		<g>
			<g>
				<polygon class="st0" points="40,35.1 28.1,13.8 20.6,27.1 25.1,35.1 			" />
				<polygon class="st1" points="23.5,35.1 19.8,28.5 16.2,35.1 			" />
			</g>
			<polygon class="st2" points="19.5,4.9 2.7,35.1 14.4,35.1 25.3,15.4 		" />
		</g>
		<g>
			<path class="st1" d="M60.6,34.6l-8.5-10.7v10.7h-4.4V11.6h4.4v11l7.9-11h5.1l-8.6,11.4L66,34.6H60.6z" />
			<path class="st1"
				d="M84.4,30.1h-9.5l-1.6,4.6h-4.7L77,11.6h5.5l8.3,23.1H86L84.4,30.1z M83.1,26.1l-3.4-10l-3.4,10H83.1z" />
			<path class="st1" d="M113.7,11.6v23.1h-4.1L99.5,19.4v15.2H95V11.6h4.1l10.2,15.2V11.6H113.7z" />
			<path class="st1" d="M136.5,28c0,4.1-2.9,6.6-8.2,6.6h-8.7v-23h7.8c5.3,0,8.1,2.5,8.1,6.2c0,2.1-0.9,3.7-2.5,4.7v0.1
			C135.3,23.5,136.5,25.4,136.5,28z M124.1,15.4v5.7h3.3c2.1,0,3.7-0.8,3.7-2.9c0-2.1-1.7-2.8-3.7-2.8H124.1z M132,27.7
			c0-2.1-1.6-3-3.7-3h-4.2v6.1h4.2C130.5,30.8,132,29.7,132,27.7z" />
			<path class="st1" d="M164.1,23.1c0,6.8-4.9,12-11.7,12s-11.7-5.2-11.7-12s4.9-11.9,11.7-11.9C159.2,11.2,164.1,16.4,164.1,23.1z
			 M159.6,23.1c0-3.8-2.5-7.7-7.2-7.7c-4.8,0-7.2,3.9-7.2,7.7c0,3.9,2.5,7.7,7.2,7.7C157.1,30.8,159.6,27,159.6,23.1z" />
			<path class="st1"
				d="M182.3,30.1h-9.5l-1.6,4.6h-4.7l8.3-23.1h5.5l8.3,23.1h-4.7L182.3,30.1z M181,26.1l-3.4-10l-3.4,10H181z" />
			<path class="st1" d="M206,34.6l-4.7-8.3c-0.1,0-0.2,0-0.4,0h-3.5v8.3h-4.4V11.6h8c5.2,0,8.6,3.2,8.6,7.5c0,2.9-1.6,5.1-4.1,6.3
			l5.7,9.2H206z M197.3,22.5h3.5c2.3,0,4-1.1,4-3.4c0-2.1-1.5-3.4-4-3.4h-3.5V22.5z" />
			<path class="st1" d="M234.8,23.1c0,6.8-4.6,11.5-12.2,11.5h-7.2V11.6h7.2C230.2,11.6,234.8,16.3,234.8,23.1z M230.3,23.1
			c0-5.1-3.6-7.4-7.8-7.4h-2.7v14.7h2.7C226.7,30.5,230.3,28.2,230.3,23.1z" />
		</g>
	</g>
</svg>